<svg width="1920" height="136" viewBox="0 0 1920 136" fill="none" xmlns="http://www.w3.org/2000/svg">
<g filter="url(#filter0_dd_401_1243)">
<rect width="1920" height="78" transform="translate(0 -2)" fill="white"/>
<mask id="mask0_401_1243" style="mask-type:alpha" maskUnits="userSpaceOnUse" x="220" y="22" width="28" height="30">
<path d="M228.894 48.3647C228.894 50.366 227.272 51.9883 225.271 51.9883C223.27 51.9883 221.647 50.366 221.647 48.3647C221.647 46.3635 223.27 44.7412 225.271 44.7412C227.272 44.7412 228.894 46.3635 228.894 48.3647Z" fill="#C4C4C4"/>
<path d="M246.353 48.3647C246.353 50.366 244.731 51.9883 242.73 51.9883C240.729 51.9883 239.106 50.366 239.106 48.3647C239.106 46.3635 240.729 44.7412 242.73 44.7412C244.731 44.7412 246.353 46.3635 246.353 48.3647Z" fill="#C4C4C4"/>
<path fill-rule="evenodd" clip-rule="evenodd" d="M245.191 45.7058C245.438 45.9345 245.409 46.3209 245.151 46.5363C243.78 47.6779 242.017 48.3647 240.094 48.3647H239.765C239.401 48.3647 239.1 48.0671 239.165 47.7091C239.474 46.0209 240.952 44.7412 242.73 44.7412C243.68 44.7412 244.545 45.1071 245.191 45.7058ZM247.099 44.1282C246.899 44.5093 246.384 44.543 246.05 44.2717C245.144 43.5354 243.988 43.0942 242.73 43.0942C240.041 43.0942 237.823 45.1066 237.5 47.7072C237.455 48.0682 237.164 48.3647 236.8 48.3647H231.2C230.836 48.3647 230.545 48.0682 230.501 47.7072C230.177 45.1066 227.959 43.0942 225.271 43.0942C224.012 43.0942 222.856 43.5354 221.95 44.2718C221.616 44.5431 221.101 44.5094 220.901 44.1283C220.326 43.0317 220 41.7833 220 40.4588V38.8116C220 38.4478 220.295 38.1528 220.659 38.1528H247.341C247.705 38.1528 248 38.4478 248 38.8116V40.4588C248 41.7832 247.674 43.0316 247.099 44.1282ZM248 35.8469C248 36.2108 247.705 36.5057 247.341 36.5057H220.659C220.295 36.5057 220 36.2108 220 35.8469V31.894C220 31.5302 220.295 31.2352 220.659 31.2352H247.341C247.705 31.2352 248 31.5302 248 31.894V35.8469ZM227.906 22.0117C223.883 22.0117 220.562 25.0164 220.064 28.904C220.017 29.2754 220.319 29.5881 220.693 29.5881H247.307C247.681 29.5881 247.983 29.2754 247.936 28.904C247.438 25.0164 244.117 22.0117 240.094 22.0117H227.906ZM225.271 44.7412C227.048 44.7412 228.526 46.0209 228.835 47.7091C228.9 48.0671 228.599 48.3647 228.235 48.3647H227.906C225.983 48.3647 224.22 47.6779 222.849 46.5364C222.591 46.321 222.562 45.9345 222.809 45.7059C223.455 45.1072 224.32 44.7412 225.271 44.7412Z" fill="#C4C4C4"/>
</mask>
<g mask="url(#mask0_401_1243)">
<rect x="218.353" y="19.7061" width="33.6" height="10.8706" fill="url(#paint0_linear_401_1243)"/>
<rect x="218.353" y="37.4941" width="33.6" height="16.4706" fill="#FFA833"/>
<rect x="218.353" y="30.5767" width="33.6" height="7.24706" rx="3.62353" fill="#F17228"/>
<rect x="196.941" y="44.7412" width="31.9529" height="7.24706" fill="#F58D00"/>
<rect x="239.106" y="44.7412" width="31.9529" height="7.24706" fill="#F58D00"/>
<ellipse cx="228.112" cy="24.8232" rx="1" ry="0.5" transform="rotate(-20.8548 228.112 24.8232)" fill="white"/>
<ellipse cx="234" cy="24.5" rx="1" ry="0.5" fill="white"/>
<ellipse cx="239.118" cy="24.9123" rx="1" ry="0.5" transform="rotate(28.1155 239.118 24.9123)" fill="white"/>
</g>
<path d="M262.3 48.6167V36.7637H260.247V33.3727L262.3 33.2172V32.3772C262.3 31.5683 262.393 30.8009 262.58 30.075C262.787 29.3491 263.119 28.7165 263.575 28.1773C264.032 27.6381 264.623 27.2129 265.349 26.9018C266.075 26.5907 266.956 26.4351 267.993 26.4351C268.636 26.4351 269.217 26.4973 269.735 26.6218C270.274 26.7462 270.72 26.8707 271.073 26.9951L270.233 30.355C269.652 30.1476 269.123 30.0439 268.646 30.0439C268.086 30.0439 267.651 30.2202 267.34 30.5728C267.029 30.9046 266.873 31.4646 266.873 32.2527V33.186H269.642V36.7637H266.873V48.6167H262.3ZM277.67 48.99C276.695 48.99 275.752 48.8137 274.839 48.4611C273.926 48.0878 273.118 47.559 272.412 46.8745C271.728 46.1901 271.178 45.3501 270.764 44.3546C270.349 43.3383 270.141 42.1873 270.141 40.9014C270.141 39.6155 270.349 38.4748 270.764 37.4792C271.178 36.463 271.728 35.6126 272.412 34.9282C273.118 34.2438 273.926 33.7253 274.839 33.3727C275.752 32.9994 276.695 32.8127 277.67 32.8127C278.645 32.8127 279.578 32.9994 280.47 33.3727C281.383 33.7253 282.181 34.2438 282.865 34.9282C283.571 35.6126 284.131 36.463 284.545 37.4792C284.96 38.4748 285.168 39.6155 285.168 40.9014C285.168 42.1873 284.96 43.3383 284.545 44.3546C284.131 45.3501 283.571 46.1901 282.865 46.8745C282.181 47.559 281.383 48.0878 280.47 48.4611C279.578 48.8137 278.645 48.99 277.67 48.99ZM277.67 45.2879C278.603 45.2879 279.309 44.8938 279.786 44.1057C280.263 43.3176 280.501 42.2495 280.501 40.9014C280.501 39.5533 280.263 38.4851 279.786 37.697C279.309 36.9089 278.603 36.5148 277.67 36.5148C276.716 36.5148 276 36.9089 275.523 37.697C275.067 38.4851 274.839 39.5533 274.839 40.9014C274.839 42.2495 275.067 43.3176 275.523 44.1057C276 44.8938 276.716 45.2879 277.67 45.2879ZM294.149 48.99C293.174 48.99 292.23 48.8137 291.318 48.4611C290.405 48.0878 289.596 47.559 288.891 46.8745C288.207 46.1901 287.657 45.3501 287.242 44.3546C286.827 43.3383 286.62 42.1873 286.62 40.9014C286.62 39.6155 286.827 38.4748 287.242 37.4792C287.657 36.463 288.207 35.6126 288.891 34.9282C289.596 34.2438 290.405 33.7253 291.318 33.3727C292.23 32.9994 293.174 32.8127 294.149 32.8127C295.124 32.8127 296.057 32.9994 296.949 33.3727C297.861 33.7253 298.66 34.2438 299.344 34.9282C300.049 35.6126 300.609 36.463 301.024 37.4792C301.439 38.4748 301.646 39.6155 301.646 40.9014C301.646 42.1873 301.439 43.3383 301.024 44.3546C300.609 45.3501 300.049 46.1901 299.344 46.8745C298.66 47.559 297.861 48.0878 296.949 48.4611C296.057 48.8137 295.124 48.99 294.149 48.99ZM294.149 45.2879C295.082 45.2879 295.787 44.8938 296.264 44.1057C296.741 43.3176 296.98 42.2495 296.98 40.9014C296.98 39.5533 296.741 38.4851 296.264 37.697C295.787 36.9089 295.082 36.5148 294.149 36.5148C293.195 36.5148 292.479 36.9089 292.002 37.697C291.546 38.4851 291.318 39.5533 291.318 40.9014C291.318 42.2495 291.546 43.3176 292.002 44.1057C292.479 44.8938 293.195 45.2879 294.149 45.2879ZM309.507 48.99C308.553 48.99 307.682 48.8034 306.894 48.43C306.127 48.0567 305.463 47.5278 304.903 46.8434C304.364 46.1383 303.939 45.2879 303.628 44.2924C303.337 43.2969 303.192 42.1665 303.192 40.9014C303.192 39.6362 303.368 38.5059 303.721 37.5104C304.094 36.5148 304.571 35.6749 305.152 34.9904C305.753 34.2853 306.438 33.746 307.205 33.3727C307.993 32.9994 308.792 32.8127 309.601 32.8127C310.472 32.8127 311.187 32.9579 311.747 33.2483C312.307 33.5386 312.857 33.9327 313.396 34.4304L313.21 32.0661V26.8085H317.783V48.6167H314.05L313.738 47.0923H313.614C313.075 47.6315 312.442 48.0878 311.716 48.4611C310.99 48.8137 310.254 48.99 309.507 48.99ZM310.69 45.2568C311.187 45.2568 311.633 45.1531 312.027 44.9457C312.442 44.7383 312.836 44.3753 313.21 43.8568V37.5415C312.795 37.1681 312.37 36.9089 311.934 36.7637C311.499 36.6185 311.073 36.5459 310.659 36.5459C309.933 36.5459 309.29 36.8985 308.73 37.6037C308.17 38.2881 307.89 39.3666 307.89 40.8392C307.89 42.3739 308.128 43.4939 308.605 44.1991C309.103 44.9042 309.798 45.2568 310.69 45.2568Z" fill="#F17228"/>
<path d="M324.88 46.6167H330.448L331.662 40.6747C331.942 39.2436 332.128 37.8747 332.377 36.1015H332.502C332.75 37.8747 332.999 39.2436 333.279 40.6747L334.524 46.6167H340.248L343.888 31.1549H339.439L338.07 38.1236C337.79 39.6169 337.666 41.1102 337.386 42.7901H337.261C336.981 41.1102 336.701 39.6169 336.359 38.1236L334.71 31.1549H330.448L328.862 38.1236C328.519 39.5858 328.271 41.1102 327.991 42.7901H327.866C327.648 41.1102 327.462 39.6169 327.213 38.1236L325.813 31.1549H321.053L324.88 46.6167ZM349.595 46.99C351.338 46.99 352.738 46.2123 354.013 45.0612H354.138L354.48 46.6167H358.4V37.8436C358.4 32.9904 356.16 30.7816 352.178 30.7816C349.751 30.7816 347.542 31.5594 345.52 32.8038L347.2 35.9148C348.755 35.0437 350 34.6082 351.244 34.6082C352.831 34.6082 353.484 35.3548 353.609 36.6303C347.511 37.2525 344.991 39.0258 344.991 42.2924C344.991 44.8745 346.764 46.99 349.595 46.99ZM351.244 43.2568C350.187 43.2568 349.595 42.8213 349.595 41.9191C349.595 40.8302 350.529 39.9902 353.609 39.5858V42.0435C352.862 42.7901 352.209 43.2568 351.244 43.2568ZM369.059 46.9221C367.905 46.9221 366.819 46.7525 365.801 46.4131C364.783 46.0567 363.892 45.5307 363.128 44.8349C362.382 44.1222 361.788 43.2398 361.347 42.1877C360.922 41.1187 360.71 39.8799 360.71 38.4715C360.71 37.08 360.931 35.8497 361.372 34.7807C361.813 33.6947 362.407 32.7868 363.154 32.0571C363.917 31.3105 364.8 30.742 365.801 30.3517C366.802 29.9614 367.854 29.7663 368.957 29.7663C370.179 29.7663 371.231 29.9869 372.114 30.4281C373.013 30.8523 373.76 31.3614 374.354 31.9553L372.063 34.7552C371.655 34.3989 371.223 34.1104 370.765 33.8898C370.323 33.6522 369.772 33.5334 369.11 33.5334C368.55 33.5334 368.032 33.6437 367.557 33.8643C367.082 34.0849 366.666 34.3989 366.31 34.8061C365.954 35.2134 365.674 35.714 365.47 36.3079C365.283 36.9018 365.19 37.5721 365.19 38.3188C365.19 39.8799 365.538 41.0763 366.234 41.9077C366.929 42.7392 368.024 43.155 369.517 43.155C369.755 43.155 369.984 43.1295 370.205 43.0786C370.442 43.0277 370.637 42.9514 370.79 42.8495V40.5587H368.346V36.9952H374.659V44.8858C374.065 45.4458 373.276 45.9294 372.292 46.3367C371.308 46.727 370.23 46.9221 369.059 46.9221ZM384.185 46.99C388.136 46.99 391.776 44.0034 391.776 38.8703C391.776 33.7371 388.136 30.7816 384.185 30.7816C380.265 30.7816 376.626 33.7371 376.626 38.8703C376.626 44.0034 380.265 46.99 384.185 46.99ZM384.185 43.1012C382.381 43.1012 381.541 41.4524 381.541 38.8703C381.541 36.3192 382.381 34.6393 384.185 34.6393C385.99 34.6393 386.83 36.3192 386.83 38.8703C386.83 41.4524 385.99 43.1012 384.185 43.1012ZM394.036 46.6167H398.827V36.257C399.791 35.3859 400.445 34.857 401.534 34.857C402.778 34.857 403.338 35.5104 403.338 37.657V46.6167H408.16V37.0348C408.16 33.1771 406.729 30.7816 403.369 30.7816C401.254 30.7816 399.698 31.8394 398.423 33.0838H398.298L397.956 31.1549H394.036V46.6167Z" fill="#FFB30E"/>
<path d="M641.788 43V31.264H645.1C646 31.264 646.81 31.378 647.53 31.606C648.25 31.834 648.868 32.188 649.384 32.668C649.9 33.136 650.296 33.736 650.572 34.468C650.848 35.2 650.986 36.07 650.986 37.078C650.986 38.086 650.848 38.962 650.572 39.706C650.296 40.45 649.906 41.068 649.402 41.56C648.898 42.04 648.292 42.4 647.584 42.64C646.888 42.88 646.108 43 645.244 43H641.788ZM644.434 40.858H644.938C645.442 40.858 645.898 40.792 646.306 40.66C646.714 40.528 647.062 40.318 647.35 40.03C647.638 39.73 647.86 39.34 648.016 38.86C648.184 38.38 648.268 37.786 648.268 37.078C648.268 36.382 648.184 35.8 648.016 35.332C647.86 34.852 647.638 34.474 647.35 34.198C647.062 33.91 646.714 33.706 646.306 33.586C645.898 33.466 645.442 33.406 644.938 33.406H644.434V40.858ZM656.994 43.216C656.358 43.216 655.764 43.114 655.212 42.91C654.66 42.694 654.18 42.388 653.772 41.992C653.364 41.584 653.046 41.092 652.818 40.516C652.59 39.94 652.476 39.28 652.476 38.536C652.476 37.816 652.596 37.168 652.836 36.592C653.076 36.004 653.388 35.512 653.772 35.116C654.168 34.708 654.618 34.396 655.122 34.18C655.626 33.964 656.148 33.856 656.688 33.856C657.324 33.856 657.876 33.964 658.344 34.18C658.824 34.396 659.22 34.696 659.532 35.08C659.856 35.464 660.096 35.92 660.252 36.448C660.408 36.964 660.486 37.528 660.486 38.14C660.486 38.38 660.474 38.608 660.45 38.824C660.426 39.04 660.402 39.202 660.378 39.31H655.032C655.152 39.958 655.416 40.438 655.824 40.75C656.244 41.05 656.754 41.2 657.354 41.2C657.99 41.2 658.632 41.002 659.28 40.606L660.162 42.208C659.706 42.52 659.196 42.766 658.632 42.946C658.08 43.126 657.534 43.216 656.994 43.216ZM655.014 37.564H658.236C658.236 37.06 658.122 36.652 657.894 36.34C657.666 36.028 657.282 35.872 656.742 35.872C656.322 35.872 655.95 36.01 655.626 36.286C655.314 36.562 655.11 36.988 655.014 37.564ZM664.745 43.216C664.289 43.216 663.905 43.144 663.593 43C663.281 42.856 663.029 42.658 662.837 42.406C662.657 42.142 662.525 41.83 662.441 41.47C662.357 41.098 662.315 40.684 662.315 40.228V30.382H664.961V40.336C664.961 40.612 665.009 40.804 665.105 40.912C665.213 41.02 665.321 41.074 665.429 41.074C665.489 41.074 665.537 41.074 665.573 41.074C665.621 41.074 665.681 41.062 665.753 41.038L666.077 43C665.933 43.06 665.747 43.108 665.519 43.144C665.303 43.192 665.045 43.216 664.745 43.216ZM667.465 43V34.072H670.111V43H667.465ZM668.779 32.758C668.335 32.758 667.969 32.632 667.681 32.38C667.393 32.116 667.249 31.78 667.249 31.372C667.249 30.964 667.393 30.634 667.681 30.382C667.969 30.13 668.335 30.004 668.779 30.004C669.235 30.004 669.601 30.13 669.877 30.382C670.165 30.634 670.309 30.964 670.309 31.372C670.309 31.78 670.165 32.116 669.877 32.38C669.601 32.632 669.235 32.758 668.779 32.758ZM674.492 43L671.486 34.072H674.15L675.302 38.284C675.422 38.728 675.536 39.184 675.644 39.652C675.764 40.108 675.884 40.57 676.004 41.038H676.076C676.184 40.57 676.292 40.108 676.4 39.652C676.52 39.184 676.64 38.728 676.76 38.284L677.93 34.072H680.468L677.552 43H674.492ZM685.717 43.216C685.081 43.216 684.487 43.114 683.935 42.91C683.383 42.694 682.903 42.388 682.495 41.992C682.087 41.584 681.769 41.092 681.541 40.516C681.313 39.94 681.199 39.28 681.199 38.536C681.199 37.816 681.319 37.168 681.559 36.592C681.799 36.004 682.111 35.512 682.495 35.116C682.891 34.708 683.341 34.396 683.845 34.18C684.349 33.964 684.871 33.856 685.411 33.856C686.047 33.856 686.599 33.964 687.067 34.18C687.547 34.396 687.943 34.696 688.255 35.08C688.579 35.464 688.819 35.92 688.975 36.448C689.131 36.964 689.209 37.528 689.209 38.14C689.209 38.38 689.197 38.608 689.173 38.824C689.149 39.04 689.125 39.202 689.101 39.31H683.755C683.875 39.958 684.139 40.438 684.547 40.75C684.967 41.05 685.477 41.2 686.077 41.2C686.713 41.2 687.355 41.002 688.003 40.606L688.885 42.208C688.429 42.52 687.919 42.766 687.355 42.946C686.803 43.126 686.257 43.216 685.717 43.216ZM683.737 37.564H686.959C686.959 37.06 686.845 36.652 686.617 36.34C686.389 36.028 686.005 35.872 685.465 35.872C685.045 35.872 684.673 36.01 684.349 36.286C684.037 36.562 683.833 36.988 683.737 37.564ZM691.037 43V34.072H693.197L693.377 35.638H693.449C693.773 35.026 694.163 34.576 694.619 34.288C695.075 34 695.531 33.856 695.987 33.856C696.239 33.856 696.443 33.874 696.599 33.91C696.767 33.934 696.917 33.976 697.049 34.036L696.617 36.322C696.449 36.274 696.293 36.238 696.149 36.214C696.005 36.19 695.837 36.178 695.645 36.178C695.309 36.178 694.955 36.298 694.583 36.538C694.223 36.778 693.923 37.204 693.683 37.816V43H691.037ZM705.251 43.216C704.699 43.216 704.225 43.132 703.829 42.964C703.445 42.796 703.127 42.562 702.875 42.262C702.635 41.962 702.455 41.602 702.335 41.182C702.227 40.75 702.173 40.276 702.173 39.76V36.142H700.949V34.18L702.317 34.072L702.623 31.696H704.819V34.072H706.961V36.142H704.819V39.724C704.819 40.228 704.921 40.594 705.125 40.822C705.341 41.038 705.623 41.146 705.971 41.146C706.115 41.146 706.259 41.128 706.403 41.092C706.559 41.056 706.697 41.014 706.817 40.966L707.231 42.892C706.991 42.964 706.709 43.036 706.385 43.108C706.061 43.18 705.683 43.216 705.251 43.216ZM712.221 43.216C711.657 43.216 711.111 43.114 710.583 42.91C710.055 42.694 709.587 42.388 709.179 41.992C708.783 41.596 708.465 41.11 708.225 40.534C707.985 39.946 707.865 39.28 707.865 38.536C707.865 37.792 707.985 37.132 708.225 36.556C708.465 35.968 708.783 35.476 709.179 35.08C709.587 34.684 710.055 34.384 710.583 34.18C711.111 33.964 711.657 33.856 712.221 33.856C712.785 33.856 713.325 33.964 713.841 34.18C714.369 34.384 714.831 34.684 715.227 35.08C715.635 35.476 715.959 35.968 716.199 36.556C716.439 37.132 716.559 37.792 716.559 38.536C716.559 39.28 716.439 39.946 716.199 40.534C715.959 41.11 715.635 41.596 715.227 41.992C714.831 42.388 714.369 42.694 713.841 42.91C713.325 43.114 712.785 43.216 712.221 43.216ZM712.221 41.074C712.761 41.074 713.169 40.846 713.445 40.39C713.721 39.934 713.859 39.316 713.859 38.536C713.859 37.756 713.721 37.138 713.445 36.682C713.169 36.226 712.761 35.998 712.221 35.998C711.669 35.998 711.255 36.226 710.979 36.682C710.715 37.138 710.583 37.756 710.583 38.536C710.583 39.316 710.715 39.934 710.979 40.39C711.255 40.846 711.669 41.074 712.221 41.074ZM719.901 37.384C719.445 37.384 719.061 37.228 718.749 36.916C718.449 36.592 718.299 36.196 718.299 35.728C718.299 35.248 718.449 34.852 718.749 34.54C719.061 34.216 719.445 34.054 719.901 34.054C720.357 34.054 720.735 34.216 721.035 34.54C721.347 34.852 721.503 35.248 721.503 35.728C721.503 36.196 721.347 36.592 721.035 36.916C720.735 37.228 720.357 37.384 719.901 37.384ZM719.901 43.216C719.445 43.216 719.061 43.06 718.749 42.748C718.449 42.424 718.299 42.028 718.299 41.56C718.299 41.08 718.449 40.684 718.749 40.372C719.061 40.048 719.445 39.886 719.901 39.886C720.357 39.886 720.735 40.048 721.035 40.372C721.347 40.684 721.503 41.08 721.503 41.56C721.503 42.028 721.347 42.424 721.035 42.748C720.735 43.06 720.357 43.216 719.901 43.216Z" fill="#424242"/>
<path d="M741.297 45.3984C741.613 45.8906 742.352 45.8906 742.668 45.3984C747.801 38.0156 748.75 37.2422 748.75 34.5C748.75 30.7734 745.727 27.75 742 27.75C738.238 27.75 735.25 30.7734 735.25 34.5C735.25 37.2422 736.164 38.0156 741.297 45.3984ZM742 37.3125C740.418 37.3125 739.188 36.082 739.188 34.5C739.188 32.9531 740.418 31.6875 742 31.6875C743.547 31.6875 744.812 32.9531 744.812 34.5C744.812 36.082 743.547 37.3125 742 37.3125Z" fill="#FFB30E"/>
<path d="M765.271 31.8018C763.859 31.8018 762.743 32.2734 761.923 33.2168C761.108 34.1543 760.701 35.4404 760.701 37.0752C760.701 38.7568 761.094 40.0576 761.879 40.9775C762.67 41.8916 763.795 42.3486 765.254 42.3486C766.15 42.3486 767.173 42.1875 768.321 41.8652V43.1748C767.431 43.5088 766.332 43.6758 765.025 43.6758C763.133 43.6758 761.671 43.1016 760.64 41.9531C759.614 40.8047 759.102 39.1729 759.102 37.0576C759.102 35.7334 759.348 34.5732 759.84 33.5771C760.338 32.5811 761.053 31.8135 761.984 31.2744C762.922 30.7354 764.023 30.4658 765.289 30.4658C766.637 30.4658 767.814 30.7119 768.822 31.2041L768.189 32.4873C767.217 32.0303 766.244 31.8018 765.271 31.8018ZM772.276 33.8672V40.1162C772.276 40.9014 772.455 41.4873 772.812 41.874C773.17 42.2607 773.729 42.4541 774.491 42.4541C775.499 42.4541 776.234 42.1787 776.697 41.6279C777.166 41.0771 777.4 40.1777 777.4 38.9297V33.8672H778.859V43.5H777.655L777.444 42.208H777.365C777.066 42.6826 776.65 43.0459 776.117 43.2979C775.59 43.5498 774.986 43.6758 774.307 43.6758C773.135 43.6758 772.256 43.3975 771.67 42.8408C771.09 42.2842 770.8 41.3936 770.8 40.1689V33.8672H772.276ZM786.356 33.6914C786.784 33.6914 787.168 33.7266 787.508 33.7969L787.306 35.1504C786.907 35.0625 786.556 35.0186 786.251 35.0186C785.472 35.0186 784.804 35.335 784.247 35.9678C783.696 36.6006 783.421 37.3887 783.421 38.332V43.5H781.962V33.8672H783.166L783.333 35.6514H783.403C783.761 35.0244 784.191 34.541 784.695 34.2012C785.199 33.8613 785.753 33.6914 786.356 33.6914ZM793.704 33.6914C794.132 33.6914 794.516 33.7266 794.855 33.7969L794.653 35.1504C794.255 35.0625 793.903 35.0186 793.599 35.0186C792.819 35.0186 792.151 35.335 791.595 35.9678C791.044 36.6006 790.769 37.3887 790.769 38.332V43.5H789.31V33.8672H790.514L790.681 35.6514H790.751C791.108 35.0244 791.539 34.541 792.043 34.2012C792.547 33.8613 793.101 33.6914 793.704 33.6914ZM800.727 43.6758C799.303 43.6758 798.178 43.2422 797.352 42.375C796.531 41.5078 796.121 40.3037 796.121 38.7627C796.121 37.21 796.502 35.9766 797.264 35.0625C798.031 34.1484 799.06 33.6914 800.349 33.6914C801.556 33.6914 802.511 34.0898 803.214 34.8867C803.917 35.6777 804.269 36.7236 804.269 38.0244V38.9473H797.633C797.662 40.0781 797.946 40.9365 798.485 41.5225C799.03 42.1084 799.795 42.4014 800.779 42.4014C801.816 42.4014 802.842 42.1846 803.855 41.751V43.0518C803.34 43.2744 802.851 43.4326 802.388 43.5264C801.931 43.626 801.377 43.6758 800.727 43.6758ZM800.331 34.9131C799.558 34.9131 798.939 35.165 798.477 35.6689C798.02 36.1729 797.75 36.8701 797.668 37.7607H802.704C802.704 36.8408 802.499 36.1377 802.089 35.6514C801.679 35.1592 801.093 34.9131 800.331 34.9131ZM813.356 43.5V37.2686C813.356 36.4834 813.178 35.8975 812.82 35.5107C812.463 35.124 811.903 34.9307 811.142 34.9307C810.134 34.9307 809.396 35.2031 808.927 35.748C808.458 36.293 808.224 37.1924 808.224 38.4463V43.5H806.765V33.8672H807.951L808.188 35.1855H808.259C808.558 34.7109 808.977 34.3447 809.516 34.0869C810.055 33.8232 810.655 33.6914 811.317 33.6914C812.478 33.6914 813.351 33.9727 813.937 34.5352C814.522 35.0918 814.815 35.9854 814.815 37.2158V43.5H813.356ZM820.933 42.4717C821.19 42.4717 821.439 42.4541 821.68 42.4189C821.92 42.3779 822.11 42.3369 822.251 42.2959V43.4121C822.093 43.4883 821.858 43.5498 821.548 43.5967C821.243 43.6494 820.968 43.6758 820.722 43.6758C818.858 43.6758 817.927 42.6943 817.927 40.7314V35.001H816.547V34.2979L817.927 33.6914L818.542 31.6348H819.386V33.8672H822.181V35.001H819.386V40.6699C819.386 41.25 819.523 41.6953 819.799 42.0059C820.074 42.3164 820.452 42.4717 820.933 42.4717ZM829.08 43.5V30.6504H830.574V42.1465H836.243V43.5H829.08ZM846.526 38.6748C846.526 40.2451 846.131 41.4727 845.34 42.3574C844.549 43.2363 843.456 43.6758 842.062 43.6758C841.2 43.6758 840.436 43.4736 839.768 43.0693C839.1 42.665 838.584 42.085 838.221 41.3291C837.857 40.5732 837.676 39.6885 837.676 38.6748C837.676 37.1045 838.068 35.8828 838.854 35.0098C839.639 34.1309 840.729 33.6914 842.123 33.6914C843.471 33.6914 844.54 34.1396 845.331 35.0361C846.128 35.9326 846.526 37.1455 846.526 38.6748ZM839.188 38.6748C839.188 39.9053 839.434 40.8428 839.926 41.4873C840.418 42.1318 841.142 42.4541 842.097 42.4541C843.052 42.4541 843.775 42.1348 844.268 41.4961C844.766 40.8516 845.015 39.9111 845.015 38.6748C845.015 37.4502 844.766 36.5215 844.268 35.8887C843.775 35.25 843.046 34.9307 842.079 34.9307C841.124 34.9307 840.403 35.2441 839.917 35.8711C839.431 36.498 839.188 37.4326 839.188 38.6748ZM852.942 43.6758C851.548 43.6758 850.467 43.248 849.699 42.3926C848.938 41.5312 848.557 40.3154 848.557 38.7451C848.557 37.1338 848.943 35.8887 849.717 35.0098C850.496 34.1309 851.604 33.6914 853.039 33.6914C853.502 33.6914 853.965 33.7412 854.428 33.8408C854.891 33.9404 855.254 34.0576 855.518 34.1924L855.069 35.4316C854.747 35.3027 854.396 35.1973 854.015 35.1152C853.634 35.0273 853.297 34.9834 853.004 34.9834C851.047 34.9834 850.068 36.2314 850.068 38.7275C850.068 39.9111 850.306 40.8193 850.78 41.4521C851.261 42.085 851.97 42.4014 852.907 42.4014C853.71 42.4014 854.533 42.2285 855.377 41.8828V43.1748C854.732 43.5088 853.921 43.6758 852.942 43.6758ZM863.595 43.5L863.305 42.1289H863.234C862.754 42.7324 862.273 43.1426 861.793 43.3594C861.318 43.5703 860.724 43.6758 860.009 43.6758C859.054 43.6758 858.304 43.4297 857.759 42.9375C857.22 42.4453 856.95 41.7451 856.95 40.8369C856.95 38.8916 858.506 37.8721 861.617 37.7783L863.252 37.7256V37.1279C863.252 36.3721 863.088 35.8154 862.76 35.458C862.438 35.0947 861.919 34.9131 861.204 34.9131C860.401 34.9131 859.493 35.1592 858.479 35.6514L858.031 34.5352C858.506 34.2773 859.024 34.0752 859.587 33.9287C860.155 33.7822 860.724 33.709 861.292 33.709C862.44 33.709 863.29 33.9639 863.841 34.4736C864.397 34.9834 864.676 35.8008 864.676 36.9258V43.5H863.595ZM860.299 42.4717C861.207 42.4717 861.919 42.2227 862.435 41.7246C862.956 41.2266 863.217 40.5293 863.217 39.6328V38.7627L861.758 38.8242C860.598 38.8652 859.76 39.0469 859.244 39.3691C858.734 39.6855 858.479 40.1807 858.479 40.8545C858.479 41.3818 858.638 41.7832 858.954 42.0586C859.276 42.334 859.725 42.4717 860.299 42.4717ZM870.802 42.4717C871.06 42.4717 871.309 42.4541 871.549 42.4189C871.789 42.3779 871.979 42.3369 872.12 42.2959V43.4121C871.962 43.4883 871.728 43.5498 871.417 43.5967C871.112 43.6494 870.837 43.6758 870.591 43.6758C868.728 43.6758 867.796 42.6943 867.796 40.7314V35.001H866.416V34.2979L867.796 33.6914L868.411 31.6348H869.255V33.8672H872.05V35.001H869.255V40.6699C869.255 41.25 869.393 41.6953 869.668 42.0059C869.943 42.3164 870.321 42.4717 870.802 42.4717ZM875.513 43.5H874.054V33.8672H875.513V43.5ZM873.931 31.2568C873.931 30.9229 874.013 30.6797 874.177 30.5273C874.341 30.3691 874.546 30.29 874.792 30.29C875.026 30.29 875.229 30.3691 875.398 30.5273C875.568 30.6855 875.653 30.9287 875.653 31.2568C875.653 31.585 875.568 31.8311 875.398 31.9951C875.229 32.1533 875.026 32.2324 874.792 32.2324C874.546 32.2324 874.341 32.1533 874.177 31.9951C874.013 31.8311 873.931 31.585 873.931 31.2568ZM886.921 38.6748C886.921 40.2451 886.525 41.4727 885.734 42.3574C884.943 43.2363 883.851 43.6758 882.456 43.6758C881.595 43.6758 880.83 43.4736 880.162 43.0693C879.494 42.665 878.979 42.085 878.615 41.3291C878.252 40.5732 878.07 39.6885 878.07 38.6748C878.07 37.1045 878.463 35.8828 879.248 35.0098C880.033 34.1309 881.123 33.6914 882.518 33.6914C883.865 33.6914 884.935 34.1396 885.726 35.0361C886.522 35.9326 886.921 37.1455 886.921 38.6748ZM879.582 38.6748C879.582 39.9053 879.828 40.8428 880.32 41.4873C880.812 42.1318 881.536 42.4541 882.491 42.4541C883.446 42.4541 884.17 42.1348 884.662 41.4961C885.16 40.8516 885.409 39.9111 885.409 38.6748C885.409 37.4502 885.16 36.5215 884.662 35.8887C884.17 35.25 883.44 34.9307 882.474 34.9307C881.519 34.9307 880.798 35.2441 880.312 35.8711C879.825 36.498 879.582 37.4326 879.582 38.6748ZM896.079 43.5V37.2686C896.079 36.4834 895.9 35.8975 895.543 35.5107C895.186 35.124 894.626 34.9307 893.864 34.9307C892.856 34.9307 892.118 35.2031 891.649 35.748C891.181 36.293 890.946 37.1924 890.946 38.4463V43.5H889.487V33.8672H890.674L890.911 35.1855H890.981C891.28 34.7109 891.699 34.3447 892.238 34.0869C892.777 33.8232 893.378 33.6914 894.04 33.6914C895.2 33.6914 896.073 33.9727 896.659 34.5352C897.245 35.0918 897.538 35.9854 897.538 37.2158V43.5H896.079Z" fill="#424242"/>
<path d="M910.105 43.5L907.012 33.4189H906.933C907.044 35.4697 907.1 36.8379 907.1 37.5234V43.5H904.665V30.6504H908.374L911.415 40.4766H911.468L914.693 30.6504H918.402V43.5H915.862V37.418C915.862 37.1309 915.865 36.7998 915.871 36.4248C915.883 36.0498 915.924 35.0537 915.994 33.4365H915.915L912.602 43.5H910.105ZM923.57 38.5693C923.57 39.542 923.729 40.2773 924.045 40.7754C924.367 41.2734 924.889 41.5225 925.609 41.5225C926.324 41.5225 926.837 41.2764 927.147 40.7842C927.464 40.2861 927.622 39.5479 927.622 38.5693C927.622 37.5967 927.464 36.8672 927.147 36.3809C926.831 35.8945 926.312 35.6514 925.592 35.6514C924.877 35.6514 924.361 35.8945 924.045 36.3809C923.729 36.8613 923.57 37.5908 923.57 38.5693ZM930.364 38.5693C930.364 40.1689 929.942 41.4199 929.099 42.3223C928.255 43.2246 927.08 43.6758 925.574 43.6758C924.631 43.6758 923.799 43.4707 923.078 43.0605C922.357 42.6445 921.804 42.0498 921.417 41.2764C921.03 40.5029 920.837 39.6006 920.837 38.5693C920.837 36.9639 921.256 35.7158 922.094 34.8252C922.932 33.9346 924.109 33.4893 925.627 33.4893C926.57 33.4893 927.402 33.6943 928.123 34.1045C928.844 34.5146 929.397 35.1035 929.784 35.8711C930.171 36.6387 930.364 37.5381 930.364 38.5693ZM941.649 43.5H938.969V37.7607C938.969 36.3428 938.441 35.6338 937.387 35.6338C936.637 35.6338 936.095 35.8887 935.761 36.3984C935.427 36.9082 935.26 37.7344 935.26 38.877V43.5H932.579V29.8242H935.26V32.6104C935.26 32.8271 935.239 33.3369 935.198 34.1396L935.137 34.9307H935.277C935.875 33.9697 936.824 33.4893 938.125 33.4893C939.279 33.4893 940.155 33.7998 940.753 34.4209C941.351 35.042 941.649 35.9326 941.649 37.0928V43.5ZM950.649 43.5L950.131 42.1641H950.061C949.609 42.7324 949.144 43.1279 948.663 43.3506C948.188 43.5674 947.567 43.6758 946.8 43.6758C945.856 43.6758 945.112 43.4062 944.567 42.8672C944.028 42.3281 943.759 41.5605 943.759 40.5645C943.759 39.5215 944.122 38.7539 944.849 38.2617C945.581 37.7637 946.683 37.4883 948.153 37.4355L949.858 37.3828V36.9521C949.858 35.9561 949.349 35.458 948.329 35.458C947.544 35.458 946.621 35.6953 945.561 36.1699L944.673 34.3594C945.804 33.7676 947.058 33.4717 948.435 33.4717C949.753 33.4717 950.764 33.7588 951.467 34.333C952.17 34.9072 952.521 35.7803 952.521 36.9521V43.5H950.649ZM949.858 38.9473L948.821 38.9824C948.042 39.0059 947.462 39.1465 947.081 39.4043C946.7 39.6621 946.51 40.0547 946.51 40.582C946.51 41.3379 946.943 41.7158 947.811 41.7158C948.432 41.7158 948.927 41.5371 949.296 41.1797C949.671 40.8223 949.858 40.3477 949.858 39.7559V38.9473ZM964.088 43.5H961.407V37.7607C961.407 37.0518 961.287 36.5215 961.047 36.1699C960.812 35.8125 960.44 35.6338 959.931 35.6338C959.245 35.6338 958.747 35.8857 958.437 36.3896C958.126 36.8936 957.971 37.7227 957.971 38.877V43.5H955.29V33.6738H957.338L957.698 34.9307H957.848C958.111 34.4795 958.492 34.1279 958.99 33.876C959.488 33.6182 960.06 33.4893 960.704 33.4893C962.175 33.4893 963.171 33.9697 963.692 34.9307H963.93C964.193 34.4736 964.58 34.1191 965.09 33.8672C965.605 33.6152 966.186 33.4893 966.83 33.4893C967.943 33.4893 968.784 33.7764 969.353 34.3506C969.927 34.9189 970.214 35.833 970.214 37.0928V43.5H967.524V37.7607C967.524 37.0518 967.404 36.5215 967.164 36.1699C966.93 35.8125 966.558 35.6338 966.048 35.6338C965.392 35.6338 964.899 35.8682 964.571 36.3369C964.249 36.8057 964.088 37.5498 964.088 38.5693V43.5ZM981.771 43.5H979.091V37.7607C979.091 37.0518 978.971 36.5215 978.73 36.1699C978.496 35.8125 978.124 35.6338 977.614 35.6338C976.929 35.6338 976.431 35.8857 976.12 36.3896C975.81 36.8936 975.654 37.7227 975.654 38.877V43.5H972.974V33.6738H975.021L975.382 34.9307H975.531C975.795 34.4795 976.176 34.1279 976.674 33.876C977.172 33.6182 977.743 33.4893 978.388 33.4893C979.858 33.4893 980.854 33.9697 981.376 34.9307H981.613C981.877 34.4736 982.264 34.1191 982.773 33.8672C983.289 33.6152 983.869 33.4893 984.514 33.4893C985.627 33.4893 986.468 33.7764 987.036 34.3506C987.61 34.9189 987.897 35.833 987.897 37.0928V43.5H985.208V37.7607C985.208 37.0518 985.088 36.5215 984.848 36.1699C984.613 35.8125 984.241 35.6338 983.731 35.6338C983.075 35.6338 982.583 35.8682 982.255 36.3369C981.933 36.8057 981.771 37.5498 981.771 38.5693V43.5ZM996.897 43.5L996.379 42.1641H996.309C995.857 42.7324 995.392 43.1279 994.911 43.3506C994.437 43.5674 993.815 43.6758 993.048 43.6758C992.104 43.6758 991.36 43.4062 990.815 42.8672C990.276 42.3281 990.007 41.5605 990.007 40.5645C990.007 39.5215 990.37 38.7539 991.097 38.2617C991.829 37.7637 992.931 37.4883 994.401 37.4355L996.106 37.3828V36.9521C996.106 35.9561 995.597 35.458 994.577 35.458C993.792 35.458 992.869 35.6953 991.809 36.1699L990.921 34.3594C992.052 33.7676 993.306 33.4717 994.683 33.4717C996.001 33.4717 997.012 33.7588 997.715 34.333C998.418 34.9072 998.77 35.7803 998.77 36.9521V43.5H996.897ZM996.106 38.9473L995.069 38.9824C994.29 39.0059 993.71 39.1465 993.329 39.4043C992.948 39.6621 992.758 40.0547 992.758 40.582C992.758 41.3379 993.191 41.7158 994.059 41.7158C994.68 41.7158 995.175 41.5371 995.544 41.1797C995.919 40.8223 996.106 40.3477 996.106 39.7559V38.9473ZM1004.65 43.6758C1003.5 43.6758 1002.59 43.2275 1001.92 42.3311C1001.27 41.4346 1000.94 40.1924 1000.94 38.6045C1000.94 36.9932 1001.27 35.7393 1001.94 34.8428C1002.62 33.9404 1003.54 33.4893 1004.72 33.4893C1005.96 33.4893 1006.9 33.9697 1007.55 34.9307H1007.64C1007.5 34.1982 1007.44 33.5449 1007.44 32.9707V29.8242H1010.12V43.5H1008.07L1007.55 42.2256H1007.44C1006.83 43.1924 1005.9 43.6758 1004.65 43.6758ZM1005.59 41.54C1006.28 41.54 1006.78 41.3408 1007.09 40.9424C1007.42 40.5439 1007.59 39.8672 1007.62 38.9121V38.6221C1007.62 37.5674 1007.46 36.8115 1007.13 36.3545C1006.81 35.8975 1006.28 35.6689 1005.55 35.6689C1004.95 35.6689 1004.48 35.9238 1004.15 36.4336C1003.82 36.9375 1003.66 37.6729 1003.66 38.6396C1003.66 39.6064 1003.82 40.333 1004.16 40.8193C1004.49 41.2998 1004.97 41.54 1005.59 41.54ZM1018.33 43.6758C1017.17 43.6758 1016.27 43.2568 1015.61 42.4189H1015.47C1015.56 43.2393 1015.61 43.7139 1015.61 43.8428V47.8242H1012.93V33.6738H1015.11L1015.49 34.9482H1015.61C1016.24 33.9756 1017.17 33.4893 1018.4 33.4893C1019.56 33.4893 1020.46 33.9375 1021.12 34.834C1021.78 35.7305 1022.1 36.9756 1022.1 38.5693C1022.1 39.6182 1021.95 40.5293 1021.64 41.3027C1021.33 42.0762 1020.9 42.665 1020.33 43.0693C1019.76 43.4736 1019.09 43.6758 1018.33 43.6758ZM1017.53 35.6338C1016.87 35.6338 1016.39 35.8389 1016.08 36.249C1015.78 36.6533 1015.62 37.3242 1015.61 38.2617V38.5518C1015.61 39.6064 1015.76 40.3623 1016.08 40.8193C1016.39 41.2764 1016.89 41.5049 1017.57 41.5049C1018.77 41.5049 1019.37 40.5146 1019.37 38.5342C1019.37 37.5674 1019.22 36.8438 1018.92 36.3633C1018.63 35.877 1018.17 35.6338 1017.53 35.6338ZM1031.28 43.5L1030.92 42.2432H1030.78C1030.49 42.7002 1030.08 43.0547 1029.56 43.3066C1029.03 43.5527 1028.43 43.6758 1027.76 43.6758C1026.6 43.6758 1025.73 43.3682 1025.15 42.7529C1024.56 42.1318 1024.27 41.2412 1024.27 40.0811V33.6738H1026.95V39.4131C1026.95 40.1221 1027.07 40.6553 1027.33 41.0127C1027.58 41.3643 1027.98 41.54 1028.53 41.54C1029.28 41.54 1029.82 41.291 1030.16 40.793C1030.49 40.2891 1030.66 39.457 1030.66 38.2969V33.6738H1033.34V43.5H1031.28ZM1041.63 33.4893C1042 33.4893 1042.3 33.5156 1042.54 33.5684L1042.34 36.082C1042.12 36.0234 1041.86 35.9941 1041.55 35.9941C1040.69 35.9941 1040.02 36.2139 1039.54 36.6533C1039.07 37.0928 1038.83 37.708 1038.83 38.499V43.5H1036.15V33.6738H1038.18L1038.58 35.3262H1038.71C1039.01 34.7754 1039.42 34.333 1039.94 33.999C1040.46 33.6592 1041.02 33.4893 1041.63 33.4893ZM1049.21 30.6504H1053.21C1055.03 30.6504 1056.35 30.9111 1057.17 31.4326C1058 31.9482 1058.41 32.7715 1058.41 33.9023C1058.41 34.6699 1058.23 35.2998 1057.87 35.792C1057.51 36.2842 1057.03 36.5801 1056.43 36.6797V36.7676C1057.25 36.9492 1057.83 37.2891 1058.19 37.7871C1058.56 38.2852 1058.74 38.9473 1058.74 39.7734C1058.74 40.9453 1058.31 41.8594 1057.46 42.5156C1056.62 43.1719 1055.47 43.5 1054.02 43.5H1049.21V30.6504ZM1051.93 35.7393H1053.52C1054.25 35.7393 1054.79 35.625 1055.12 35.3965C1055.45 35.168 1055.62 34.79 1055.62 34.2627C1055.62 33.7705 1055.44 33.4189 1055.07 33.208C1054.71 32.9912 1054.15 32.8828 1053.37 32.8828H1051.93V35.7393ZM1051.93 37.9014V41.25H1053.71C1054.46 41.25 1055.01 41.1064 1055.37 40.8193C1055.73 40.5322 1055.91 40.0928 1055.91 39.501C1055.91 38.4346 1055.15 37.9014 1053.62 37.9014H1051.93ZM1068.05 43.5L1067.69 42.2432H1067.55C1067.27 42.7002 1066.86 43.0547 1066.33 43.3066C1065.8 43.5527 1065.2 43.6758 1064.53 43.6758C1063.38 43.6758 1062.5 43.3682 1061.92 42.7529C1061.33 42.1318 1061.04 41.2412 1061.04 40.0811V33.6738H1063.72V39.4131C1063.72 40.1221 1063.85 40.6553 1064.1 41.0127C1064.35 41.3643 1064.75 41.54 1065.3 41.54C1066.05 41.54 1066.59 41.291 1066.93 40.793C1067.26 40.2891 1067.43 39.457 1067.43 38.2969V33.6738H1070.11V43.5H1068.05ZM1079.78 40.582C1079.78 41.5898 1079.43 42.3574 1078.72 42.8848C1078.03 43.4121 1076.98 43.6758 1075.59 43.6758C1074.87 43.6758 1074.26 43.626 1073.76 43.5264C1073.25 43.4326 1072.78 43.292 1072.34 43.1045V40.8896C1072.84 41.124 1073.4 41.3203 1074.02 41.4785C1074.65 41.6367 1075.2 41.7158 1075.67 41.7158C1076.65 41.7158 1077.13 41.4346 1077.13 40.8721C1077.13 40.6611 1077.07 40.4912 1076.94 40.3623C1076.81 40.2275 1076.59 40.0781 1076.27 39.9141C1075.96 39.7441 1075.53 39.5479 1075.01 39.3252C1074.25 39.0088 1073.69 38.7158 1073.34 38.4463C1072.98 38.1768 1072.73 37.8691 1072.56 37.5234C1072.4 37.1719 1072.33 36.7412 1072.33 36.2314C1072.33 35.3584 1072.66 34.6846 1073.34 34.21C1074.02 33.7295 1074.98 33.4893 1076.22 33.4893C1077.4 33.4893 1078.55 33.7471 1079.67 34.2627L1078.86 36.1963C1078.37 35.9854 1077.91 35.8125 1077.48 35.6777C1077.06 35.543 1076.62 35.4756 1076.17 35.4756C1075.38 35.4756 1074.99 35.6895 1074.99 36.1172C1074.99 36.3574 1075.11 36.5654 1075.37 36.7412C1075.62 36.917 1076.18 37.1777 1077.04 37.5234C1077.81 37.834 1078.38 38.124 1078.73 38.3936C1079.09 38.6631 1079.35 38.9736 1079.52 39.3252C1079.69 39.6768 1079.78 40.0957 1079.78 40.582ZM1094.34 39.9316C1094.34 41.0918 1093.92 42.0059 1093.08 42.6738C1092.25 43.3418 1091.09 43.6758 1089.6 43.6758C1088.23 43.6758 1087.02 43.418 1085.97 42.9023V40.3711C1086.83 40.7578 1087.57 41.0303 1088.16 41.1885C1088.77 41.3467 1089.32 41.4258 1089.82 41.4258C1090.41 41.4258 1090.87 41.3115 1091.19 41.083C1091.51 40.8545 1091.67 40.5146 1091.67 40.0635C1091.67 39.8115 1091.6 39.5889 1091.46 39.3955C1091.32 39.1963 1091.11 39.0059 1090.83 38.8242C1090.57 38.6426 1090.01 38.3525 1089.17 37.9541C1088.39 37.585 1087.8 37.2305 1087.41 36.8906C1087.01 36.5508 1086.7 36.1553 1086.47 35.7041C1086.23 35.2529 1086.12 34.7256 1086.12 34.1221C1086.12 32.9854 1086.5 32.0918 1087.27 31.4414C1088.04 30.791 1089.11 30.4658 1090.47 30.4658C1091.13 30.4658 1091.77 30.5449 1092.37 30.7031C1092.98 30.8613 1093.62 31.084 1094.28 31.3711L1093.4 33.4893C1092.72 33.208 1092.15 33.0117 1091.7 32.9004C1091.25 32.7891 1090.81 32.7334 1090.38 32.7334C1089.86 32.7334 1089.47 32.8535 1089.19 33.0938C1088.92 33.334 1088.78 33.6475 1088.78 34.0342C1088.78 34.2744 1088.83 34.4854 1088.95 34.667C1089.06 34.8428 1089.23 35.0156 1089.47 35.1855C1089.72 35.3496 1090.3 35.6484 1091.2 36.082C1092.41 36.6562 1093.23 37.2334 1093.67 37.8135C1094.12 38.3877 1094.34 39.0938 1094.34 39.9316ZM1100.6 41.54C1101.07 41.54 1101.63 41.4375 1102.29 41.2324V43.2275C1101.62 43.5264 1100.8 43.6758 1099.83 43.6758C1098.75 43.6758 1097.97 43.4062 1097.48 42.8672C1096.99 42.3223 1096.75 41.5078 1096.75 40.4238V35.6865H1095.47V34.5527L1096.94 33.6562L1097.72 31.582H1099.43V33.6738H1102.18V35.6865H1099.43V40.4238C1099.43 40.8047 1099.54 41.0859 1099.75 41.2676C1099.96 41.4492 1100.25 41.54 1100.6 41.54ZM1110.52 43.5L1110 42.1641H1109.93C1109.48 42.7324 1109.02 43.1279 1108.54 43.3506C1108.06 43.5674 1107.44 43.6758 1106.67 43.6758C1105.73 43.6758 1104.99 43.4062 1104.44 42.8672C1103.9 42.3281 1103.63 41.5605 1103.63 40.5645C1103.63 39.5215 1104 38.7539 1104.72 38.2617C1105.45 37.7637 1106.56 37.4883 1108.03 37.4355L1109.73 37.3828V36.9521C1109.73 35.9561 1109.22 35.458 1108.2 35.458C1107.42 35.458 1106.49 35.6953 1105.43 36.1699L1104.55 34.3594C1105.68 33.7676 1106.93 33.4717 1108.31 33.4717C1109.63 33.4717 1110.64 33.7588 1111.34 34.333C1112.04 34.9072 1112.39 35.7803 1112.39 36.9521V43.5H1110.52ZM1109.73 38.9473L1108.69 38.9824C1107.92 39.0059 1107.33 39.1465 1106.95 39.4043C1106.57 39.6621 1106.38 40.0547 1106.38 40.582C1106.38 41.3379 1106.82 41.7158 1107.68 41.7158C1108.3 41.7158 1108.8 41.5371 1109.17 41.1797C1109.54 40.8223 1109.73 40.3477 1109.73 39.7559V38.9473ZM1124.23 43.5H1121.55V37.7607C1121.55 37.0518 1121.43 36.5215 1121.17 36.1699C1120.92 35.8125 1120.52 35.6338 1119.97 35.6338C1119.22 35.6338 1118.68 35.8857 1118.34 36.3896C1118.01 36.8877 1117.84 37.7168 1117.84 38.877V43.5H1115.16V33.6738H1117.21L1117.57 34.9307H1117.72C1118.02 34.4561 1118.43 34.0986 1118.95 33.8584C1119.48 33.6123 1120.08 33.4893 1120.74 33.4893C1121.89 33.4893 1122.75 33.7998 1123.35 34.4209C1123.94 35.0361 1124.23 35.9268 1124.23 37.0928V43.5ZM1130.1 43.6758C1128.95 43.6758 1128.04 43.2275 1127.38 42.3311C1126.72 41.4346 1126.4 40.1924 1126.4 38.6045C1126.4 36.9932 1126.73 35.7393 1127.4 34.8428C1128.07 33.9404 1129 33.4893 1130.17 33.4893C1131.41 33.4893 1132.35 33.9697 1133 34.9307H1133.09C1132.96 34.1982 1132.89 33.5449 1132.89 32.9707V29.8242H1135.58V43.5H1133.52L1133 42.2256H1132.89C1132.28 43.1924 1131.35 43.6758 1130.1 43.6758ZM1131.04 41.54C1131.73 41.54 1132.23 41.3408 1132.55 40.9424C1132.87 40.5439 1133.05 39.8672 1133.08 38.9121V38.6221C1133.08 37.5674 1132.91 36.8115 1132.58 36.3545C1132.26 35.8975 1131.73 35.6689 1131 35.6689C1130.4 35.6689 1129.94 35.9238 1129.6 36.4336C1129.28 36.9375 1129.11 37.6729 1129.11 38.6396C1129.11 39.6064 1129.28 40.333 1129.61 40.8193C1129.95 41.2998 1130.42 41.54 1131.04 41.54ZM1141.01 41.6104C1140.71 42.7939 1140.19 44.1973 1139.46 45.8203H1137.53C1137.91 44.2617 1138.21 42.791 1138.42 41.4082H1140.88L1141.01 41.6104ZM1159.15 36.9521C1159.15 39.0674 1158.55 40.6875 1157.34 41.8125C1156.14 42.9375 1154.4 43.5 1152.13 43.5H1148.49V30.6504H1152.53C1154.62 30.6504 1156.25 31.2041 1157.41 32.3115C1158.57 33.4189 1159.15 34.9658 1159.15 36.9521ZM1156.32 37.0225C1156.32 34.2627 1155.1 32.8828 1152.67 32.8828H1151.22V41.25H1152.38C1155.01 41.25 1156.32 39.8408 1156.32 37.0225ZM1170.67 43.5H1167.99V37.7607C1167.99 36.3428 1167.47 35.6338 1166.41 35.6338C1165.66 35.6338 1165.12 35.8887 1164.79 36.3984C1164.45 36.9082 1164.29 37.7344 1164.29 38.877V43.5H1161.6V29.8242H1164.29V32.6104C1164.29 32.8271 1164.26 33.3369 1164.22 34.1396L1164.16 34.9307H1164.3C1164.9 33.9697 1165.85 33.4893 1167.15 33.4893C1168.3 33.4893 1169.18 33.7998 1169.78 34.4209C1170.38 35.042 1170.67 35.9326 1170.67 37.0928V43.5ZM1179.67 43.5L1179.16 42.1641H1179.09C1178.63 42.7324 1178.17 43.1279 1177.69 43.3506C1177.21 43.5674 1176.59 43.6758 1175.83 43.6758C1174.88 43.6758 1174.14 43.4062 1173.59 42.8672C1173.05 42.3281 1172.78 41.5605 1172.78 40.5645C1172.78 39.5215 1173.15 38.7539 1173.87 38.2617C1174.61 37.7637 1175.71 37.4883 1177.18 37.4355L1178.88 37.3828V36.9521C1178.88 35.9561 1178.37 35.458 1177.35 35.458C1176.57 35.458 1175.65 35.6953 1174.59 36.1699L1173.7 34.3594C1174.83 33.7676 1176.08 33.4717 1177.46 33.4717C1178.78 33.4717 1179.79 33.7588 1180.49 34.333C1181.2 34.9072 1181.55 35.7803 1181.55 36.9521V43.5H1179.67ZM1178.88 38.9473L1177.85 38.9824C1177.07 39.0059 1176.49 39.1465 1176.11 39.4043C1175.73 39.6621 1175.54 40.0547 1175.54 40.582C1175.54 41.3379 1175.97 41.7158 1176.84 41.7158C1177.46 41.7158 1177.95 41.5371 1178.32 41.1797C1178.7 40.8223 1178.88 40.3477 1178.88 39.7559V38.9473ZM1186.89 38.1562L1188.06 36.6621L1190.81 33.6738H1193.83L1189.93 37.9365L1194.07 43.5H1190.98L1188.15 39.5186L1187 40.4414V43.5H1184.32V29.8242H1187V35.9238L1186.86 38.1562H1186.89ZM1201.72 43.5L1201.2 42.1641H1201.13C1200.68 42.7324 1200.21 43.1279 1199.73 43.3506C1199.26 43.5674 1198.64 43.6758 1197.87 43.6758C1196.92 43.6758 1196.18 43.4062 1195.64 42.8672C1195.1 42.3281 1194.83 41.5605 1194.83 40.5645C1194.83 39.5215 1195.19 38.7539 1195.92 38.2617C1196.65 37.7637 1197.75 37.4883 1199.22 37.4355L1200.93 37.3828V36.9521C1200.93 35.9561 1200.42 35.458 1199.4 35.458C1198.61 35.458 1197.69 35.6953 1196.63 36.1699L1195.74 34.3594C1196.87 33.7676 1198.13 33.4717 1199.5 33.4717C1200.82 33.4717 1201.83 33.7588 1202.54 34.333C1203.24 34.9072 1203.59 35.7803 1203.59 36.9521V43.5H1201.72ZM1200.93 38.9473L1199.89 38.9824C1199.11 39.0059 1198.53 39.1465 1198.15 39.4043C1197.77 39.6621 1197.58 40.0547 1197.58 40.582C1197.58 41.3379 1198.01 41.7158 1198.88 41.7158C1199.5 41.7158 1200 41.5371 1200.36 41.1797C1200.74 40.8223 1200.93 40.3477 1200.93 39.7559V38.9473Z" fill="#424242"/>
<path d="M1445.75 43.8242L1442.24 40.3086C1442.06 40.168 1441.85 40.0625 1441.64 40.0625H1441.08C1442.03 38.832 1442.62 37.2852 1442.62 35.5625C1442.62 31.5547 1439.32 28.25 1435.31 28.25C1431.27 28.25 1428 31.5547 1428 35.5625C1428 39.6055 1431.27 42.875 1435.31 42.875C1437 42.875 1438.55 42.3125 1439.81 41.3281V41.9258C1439.81 42.1367 1439.88 42.3477 1440.06 42.5234L1443.54 46.0039C1443.89 46.3555 1444.42 46.3555 1444.73 46.0039L1445.72 45.0195C1446.07 44.7031 1446.07 44.1758 1445.75 43.8242ZM1435.31 40.0625C1432.82 40.0625 1430.81 38.0586 1430.81 35.5625C1430.81 33.1016 1432.82 31.0625 1435.31 31.0625C1437.77 31.0625 1439.81 33.1016 1439.81 35.5625C1439.81 38.0586 1437.77 40.0625 1435.31 40.0625Z" fill="#FFB30E"/>
<path d="M1459.31 43.216C1458.54 43.216 1457.78 43.078 1457.01 42.802C1456.25 42.514 1455.57 42.088 1454.97 41.524L1456.49 39.706C1456.91 40.066 1457.37 40.36 1457.87 40.588C1458.39 40.816 1458.89 40.93 1459.38 40.93C1459.94 40.93 1460.34 40.828 1460.61 40.624C1460.88 40.42 1461.02 40.144 1461.02 39.796C1461.02 39.616 1460.98 39.46 1460.9 39.328C1460.82 39.196 1460.71 39.082 1460.55 38.986C1460.41 38.878 1460.23 38.782 1460.01 38.698C1459.81 38.602 1459.58 38.5 1459.33 38.392L1457.8 37.744C1457.5 37.624 1457.21 37.468 1456.92 37.276C1456.64 37.084 1456.39 36.862 1456.16 36.61C1455.95 36.346 1455.77 36.046 1455.64 35.71C1455.51 35.362 1455.44 34.972 1455.44 34.54C1455.44 34.06 1455.54 33.61 1455.75 33.19C1455.95 32.758 1456.24 32.386 1456.61 32.074C1456.98 31.75 1457.42 31.498 1457.93 31.318C1458.44 31.138 1459.01 31.048 1459.62 31.048C1460.3 31.048 1460.97 31.18 1461.63 31.444C1462.31 31.708 1462.89 32.092 1463.4 32.596L1462.05 34.27C1461.66 33.97 1461.28 33.742 1460.9 33.586C1460.51 33.418 1460.09 33.334 1459.62 33.334C1459.16 33.334 1458.8 33.43 1458.52 33.622C1458.26 33.802 1458.12 34.06 1458.12 34.396C1458.12 34.576 1458.17 34.732 1458.25 34.864C1458.35 34.984 1458.47 35.098 1458.63 35.206C1458.8 35.302 1458.99 35.398 1459.2 35.494C1459.42 35.578 1459.65 35.674 1459.91 35.782L1461.42 36.394C1462.14 36.682 1462.7 37.078 1463.11 37.582C1463.53 38.086 1463.74 38.752 1463.74 39.58C1463.74 40.072 1463.64 40.54 1463.43 40.984C1463.24 41.416 1462.95 41.8 1462.57 42.136C1462.2 42.46 1461.74 42.724 1461.18 42.928C1460.63 43.12 1460.01 43.216 1459.31 43.216ZM1469.51 43.216C1468.88 43.216 1468.28 43.114 1467.73 42.91C1467.18 42.694 1466.7 42.388 1466.29 41.992C1465.88 41.584 1465.56 41.092 1465.34 40.516C1465.11 39.94 1464.99 39.28 1464.99 38.536C1464.99 37.816 1465.11 37.168 1465.35 36.592C1465.59 36.004 1465.91 35.512 1466.29 35.116C1466.69 34.708 1467.14 34.396 1467.64 34.18C1468.14 33.964 1468.67 33.856 1469.21 33.856C1469.84 33.856 1470.39 33.964 1470.86 34.18C1471.34 34.396 1471.74 34.696 1472.05 35.08C1472.37 35.464 1472.61 35.92 1472.77 36.448C1472.93 36.964 1473 37.528 1473 38.14C1473 38.38 1472.99 38.608 1472.97 38.824C1472.94 39.04 1472.92 39.202 1472.9 39.31H1467.55C1467.67 39.958 1467.93 40.438 1468.34 40.75C1468.76 41.05 1469.27 41.2 1469.87 41.2C1470.51 41.2 1471.15 41.002 1471.8 40.606L1472.68 42.208C1472.22 42.52 1471.71 42.766 1471.15 42.946C1470.6 43.126 1470.05 43.216 1469.51 43.216ZM1467.53 37.564H1470.75C1470.75 37.06 1470.64 36.652 1470.41 36.34C1470.18 36.028 1469.8 35.872 1469.26 35.872C1468.84 35.872 1468.47 36.01 1468.14 36.286C1467.83 36.562 1467.63 36.988 1467.53 37.564ZM1476.89 43.216C1476.48 43.216 1476.11 43.144 1475.77 43C1475.45 42.868 1475.17 42.682 1474.94 42.442C1474.72 42.19 1474.54 41.902 1474.4 41.578C1474.28 41.254 1474.22 40.9 1474.22 40.516C1474.22 39.58 1474.62 38.848 1475.41 38.32C1476.2 37.792 1477.48 37.438 1479.25 37.258C1479.22 36.862 1479.1 36.55 1478.89 36.322C1478.68 36.082 1478.33 35.962 1477.84 35.962C1477.46 35.962 1477.07 36.034 1476.69 36.178C1476.32 36.322 1475.92 36.52 1475.48 36.772L1474.53 35.026C1475.11 34.678 1475.71 34.396 1476.33 34.18C1476.97 33.964 1477.64 33.856 1478.35 33.856C1479.5 33.856 1480.37 34.186 1480.97 34.846C1481.59 35.494 1481.89 36.508 1481.89 37.888V43H1479.73L1479.55 42.082H1479.48C1479.1 42.418 1478.69 42.694 1478.27 42.91C1477.85 43.114 1477.39 43.216 1476.89 43.216ZM1477.79 41.164C1478.09 41.164 1478.35 41.098 1478.56 40.966C1478.78 40.834 1479.01 40.648 1479.25 40.408V38.842C1478.31 38.974 1477.66 39.166 1477.3 39.418C1476.94 39.67 1476.76 39.97 1476.76 40.318C1476.76 40.606 1476.85 40.822 1477.03 40.966C1477.22 41.098 1477.48 41.164 1477.79 41.164ZM1484.13 43V34.072H1486.29L1486.47 35.638H1486.54C1486.87 35.026 1487.26 34.576 1487.71 34.288C1488.17 34 1488.62 33.856 1489.08 33.856C1489.33 33.856 1489.54 33.874 1489.69 33.91C1489.86 33.934 1490.01 33.976 1490.14 34.036L1489.71 36.322C1489.54 36.274 1489.39 36.238 1489.24 36.214C1489.1 36.19 1488.93 36.178 1488.74 36.178C1488.4 36.178 1488.05 36.298 1487.68 36.538C1487.32 36.778 1487.02 37.204 1486.78 37.816V43H1484.13ZM1495.02 43.216C1494.39 43.216 1493.81 43.114 1493.27 42.91C1492.74 42.694 1492.28 42.388 1491.88 41.992C1491.49 41.596 1491.18 41.11 1490.95 40.534C1490.72 39.946 1490.61 39.28 1490.61 38.536C1490.61 37.792 1490.73 37.132 1490.98 36.556C1491.24 35.968 1491.57 35.476 1491.99 35.08C1492.42 34.684 1492.92 34.384 1493.49 34.18C1494.05 33.964 1494.64 33.856 1495.25 33.856C1495.8 33.856 1496.29 33.946 1496.71 34.126C1497.14 34.306 1497.52 34.534 1497.86 34.81L1496.62 36.52C1496.2 36.172 1495.8 35.998 1495.41 35.998C1494.76 35.998 1494.25 36.226 1493.88 36.682C1493.51 37.138 1493.32 37.756 1493.32 38.536C1493.32 39.316 1493.51 39.934 1493.88 40.39C1494.27 40.846 1494.75 41.074 1495.32 41.074C1495.61 41.074 1495.89 41.014 1496.15 40.894C1496.43 40.762 1496.68 40.606 1496.92 40.426L1497.97 42.154C1497.52 42.538 1497.04 42.814 1496.53 42.982C1496.01 43.138 1495.51 43.216 1495.02 43.216ZM1499.53 43V30.382H1502.18V33.478L1502.05 35.08C1502.39 34.78 1502.78 34.504 1503.22 34.252C1503.66 33.988 1504.19 33.856 1504.8 33.856C1505.78 33.856 1506.48 34.174 1506.91 34.81C1507.35 35.446 1507.58 36.328 1507.58 37.456V43H1504.93V37.798C1504.93 37.15 1504.84 36.706 1504.66 36.466C1504.49 36.226 1504.22 36.106 1503.83 36.106C1503.5 36.106 1503.21 36.184 1502.97 36.34C1502.73 36.484 1502.46 36.694 1502.18 36.97V43H1499.53ZM1513.63 43V31.264H1521.03V33.496H1516.28V36.214H1520.35V38.446H1516.28V43H1513.63ZM1526.37 43.216C1525.81 43.216 1525.26 43.114 1524.74 42.91C1524.21 42.694 1523.74 42.388 1523.33 41.992C1522.94 41.596 1522.62 41.11 1522.38 40.534C1522.14 39.946 1522.02 39.28 1522.02 38.536C1522.02 37.792 1522.14 37.132 1522.38 36.556C1522.62 35.968 1522.94 35.476 1523.33 35.08C1523.74 34.684 1524.21 34.384 1524.74 34.18C1525.26 33.964 1525.81 33.856 1526.37 33.856C1526.94 33.856 1527.48 33.964 1527.99 34.18C1528.52 34.384 1528.98 34.684 1529.38 35.08C1529.79 35.476 1530.11 35.968 1530.35 36.556C1530.59 37.132 1530.71 37.792 1530.71 38.536C1530.71 39.28 1530.59 39.946 1530.35 40.534C1530.11 41.11 1529.79 41.596 1529.38 41.992C1528.98 42.388 1528.52 42.694 1527.99 42.91C1527.48 43.114 1526.94 43.216 1526.37 43.216ZM1526.37 41.074C1526.91 41.074 1527.32 40.846 1527.6 40.39C1527.87 39.934 1528.01 39.316 1528.01 38.536C1528.01 37.756 1527.87 37.138 1527.6 36.682C1527.32 36.226 1526.91 35.998 1526.37 35.998C1525.82 35.998 1525.41 36.226 1525.13 36.682C1524.87 37.138 1524.74 37.756 1524.74 38.536C1524.74 39.316 1524.87 39.934 1525.13 40.39C1525.41 40.846 1525.82 41.074 1526.37 41.074ZM1536.36 43.216C1535.79 43.216 1535.25 43.114 1534.72 42.91C1534.19 42.694 1533.72 42.388 1533.32 41.992C1532.92 41.596 1532.6 41.11 1532.36 40.534C1532.12 39.946 1532 39.28 1532 38.536C1532 37.792 1532.12 37.132 1532.36 36.556C1532.6 35.968 1532.92 35.476 1533.32 35.08C1533.72 34.684 1534.19 34.384 1534.72 34.18C1535.25 33.964 1535.79 33.856 1536.36 33.856C1536.92 33.856 1537.46 33.964 1537.98 34.18C1538.51 34.384 1538.97 34.684 1539.36 35.08C1539.77 35.476 1540.1 35.968 1540.34 36.556C1540.58 37.132 1540.7 37.792 1540.7 38.536C1540.7 39.28 1540.58 39.946 1540.34 40.534C1540.1 41.11 1539.77 41.596 1539.36 41.992C1538.97 42.388 1538.51 42.694 1537.98 42.91C1537.46 43.114 1536.92 43.216 1536.36 43.216ZM1536.36 41.074C1536.9 41.074 1537.31 40.846 1537.58 40.39C1537.86 39.934 1538 39.316 1538 38.536C1538 37.756 1537.86 37.138 1537.58 36.682C1537.31 36.226 1536.9 35.998 1536.36 35.998C1535.81 35.998 1535.39 36.226 1535.12 36.682C1534.85 37.138 1534.72 37.756 1534.72 38.536C1534.72 39.316 1534.85 39.934 1535.12 40.39C1535.39 40.846 1535.81 41.074 1536.36 41.074ZM1545.69 43.216C1545.14 43.216 1544.64 43.108 1544.18 42.892C1543.74 42.676 1543.35 42.37 1543.03 41.974C1542.72 41.566 1542.47 41.074 1542.29 40.498C1542.12 39.922 1542.04 39.268 1542.04 38.536C1542.04 37.804 1542.14 37.15 1542.35 36.574C1542.56 35.998 1542.84 35.512 1543.17 35.116C1543.52 34.708 1543.92 34.396 1544.36 34.18C1544.82 33.964 1545.28 33.856 1545.75 33.856C1546.25 33.856 1546.67 33.94 1546.99 34.108C1547.31 34.276 1547.63 34.504 1547.94 34.792L1547.84 33.424V30.382H1550.48V43H1548.32L1548.14 42.118H1548.07C1547.76 42.43 1547.39 42.694 1546.97 42.91C1546.55 43.114 1546.13 43.216 1545.69 43.216ZM1546.38 41.056C1546.67 41.056 1546.92 40.996 1547.15 40.876C1547.39 40.756 1547.62 40.546 1547.84 40.246V36.592C1547.6 36.376 1547.35 36.226 1547.1 36.142C1546.85 36.058 1546.6 36.016 1546.36 36.016C1545.94 36.016 1545.57 36.22 1545.24 36.628C1544.92 37.024 1544.76 37.648 1544.76 38.5C1544.76 39.388 1544.9 40.036 1545.17 40.444C1545.46 40.852 1545.86 41.056 1546.38 41.056Z" fill="#424242"/>
<g filter="url(#filter1_dd_401_1243)">
<rect x="1582" y="14" width="118" height="46" rx="8" fill="white"/>
<path d="M1614 37.25C1616.46 37.25 1618.5 35.2461 1618.5 32.75C1618.5 30.2891 1616.46 28.25 1614 28.25C1611.5 28.25 1609.5 30.2891 1609.5 32.75C1609.5 35.2461 1611.5 37.25 1614 37.25ZM1617.13 38.375H1616.53C1615.76 38.7617 1614.91 38.9375 1614 38.9375C1613.09 38.9375 1612.21 38.7617 1611.43 38.375H1610.84C1608.23 38.375 1606.12 40.5195 1606.12 43.1211V44.5625C1606.12 45.5117 1606.86 46.25 1607.81 46.25H1620.19C1621.1 46.25 1621.88 45.5117 1621.88 44.5625V43.1211C1621.88 40.5195 1619.73 38.375 1617.13 38.375Z" fill="url(#paint1_linear_401_1243)"/>
<path d="M1633.41 43V31.264H1636.06V40.768H1640.7V43H1633.41ZM1646.1 43.216C1645.54 43.216 1644.99 43.114 1644.46 42.91C1643.94 42.694 1643.47 42.388 1643.06 41.992C1642.66 41.596 1642.35 41.11 1642.11 40.534C1641.87 39.946 1641.75 39.28 1641.75 38.536C1641.75 37.792 1641.87 37.132 1642.11 36.556C1642.35 35.968 1642.66 35.476 1643.06 35.08C1643.47 34.684 1643.94 34.384 1644.46 34.18C1644.99 33.964 1645.54 33.856 1646.1 33.856C1646.67 33.856 1647.21 33.964 1647.72 34.18C1648.25 34.384 1648.71 34.684 1649.11 35.08C1649.52 35.476 1649.84 35.968 1650.08 36.556C1650.32 37.132 1650.44 37.792 1650.44 38.536C1650.44 39.28 1650.32 39.946 1650.08 40.534C1649.84 41.11 1649.52 41.596 1649.11 41.992C1648.71 42.388 1648.25 42.694 1647.72 42.91C1647.21 43.114 1646.67 43.216 1646.1 43.216ZM1646.1 41.074C1646.64 41.074 1647.05 40.846 1647.33 40.39C1647.6 39.934 1647.74 39.316 1647.74 38.536C1647.74 37.756 1647.6 37.138 1647.33 36.682C1647.05 36.226 1646.64 35.998 1646.1 35.998C1645.55 35.998 1645.14 36.226 1644.86 36.682C1644.6 37.138 1644.46 37.756 1644.46 38.536C1644.46 39.316 1644.6 39.934 1644.86 40.39C1645.14 40.846 1645.55 41.074 1646.1 41.074ZM1655.44 46.798C1654.91 46.798 1654.42 46.75 1653.96 46.654C1653.52 46.57 1653.12 46.438 1652.77 46.258C1652.44 46.078 1652.17 45.844 1651.98 45.556C1651.79 45.268 1651.69 44.926 1651.69 44.53C1651.69 43.81 1652.12 43.21 1652.97 42.73V42.658C1652.73 42.502 1652.53 42.304 1652.38 42.064C1652.22 41.824 1652.14 41.518 1652.14 41.146C1652.14 40.822 1652.24 40.516 1652.43 40.228C1652.62 39.928 1652.86 39.676 1653.15 39.472V39.4C1652.84 39.184 1652.56 38.878 1652.31 38.482C1652.07 38.074 1651.95 37.606 1651.95 37.078C1651.95 36.538 1652.05 36.07 1652.25 35.674C1652.46 35.266 1652.73 34.93 1653.06 34.666C1653.41 34.39 1653.81 34.186 1654.25 34.054C1654.69 33.922 1655.16 33.856 1655.64 33.856C1656.16 33.856 1656.63 33.928 1657.02 34.072H1660.28V35.998H1658.86C1658.94 36.13 1659.01 36.298 1659.06 36.502C1659.12 36.706 1659.15 36.928 1659.15 37.168C1659.15 37.684 1659.06 38.134 1658.88 38.518C1658.7 38.89 1658.44 39.202 1658.12 39.454C1657.81 39.694 1657.44 39.874 1657 39.994C1656.58 40.114 1656.13 40.174 1655.64 40.174C1655.29 40.174 1654.93 40.114 1654.56 39.994C1654.44 40.09 1654.35 40.186 1654.3 40.282C1654.26 40.378 1654.23 40.504 1654.23 40.66C1654.23 40.888 1654.33 41.056 1654.52 41.164C1654.72 41.272 1655.08 41.326 1655.58 41.326H1657.02C1658.13 41.326 1658.97 41.506 1659.54 41.866C1660.13 42.214 1660.42 42.79 1660.42 43.594C1660.42 44.062 1660.3 44.488 1660.06 44.872C1659.84 45.268 1659.51 45.604 1659.07 45.88C1658.64 46.168 1658.12 46.39 1657.51 46.546C1656.9 46.714 1656.21 46.798 1655.44 46.798ZM1655.64 38.572C1655.98 38.572 1656.27 38.452 1656.5 38.212C1656.74 37.96 1656.86 37.582 1656.86 37.078C1656.86 36.61 1656.74 36.256 1656.5 36.016C1656.27 35.764 1655.98 35.638 1655.64 35.638C1655.29 35.638 1654.99 35.758 1654.75 35.998C1654.53 36.238 1654.41 36.598 1654.41 37.078C1654.41 37.582 1654.53 37.96 1654.75 38.212C1654.99 38.452 1655.29 38.572 1655.64 38.572ZM1655.85 45.142C1656.45 45.142 1656.94 45.034 1657.33 44.818C1657.71 44.614 1657.9 44.356 1657.9 44.044C1657.9 43.768 1657.78 43.582 1657.54 43.486C1657.32 43.39 1656.98 43.342 1656.54 43.342H1655.62C1655.31 43.342 1655.05 43.33 1654.86 43.306C1654.67 43.294 1654.5 43.27 1654.36 43.234C1654.03 43.522 1653.87 43.816 1653.87 44.116C1653.87 44.452 1654.05 44.704 1654.41 44.872C1654.77 45.052 1655.25 45.142 1655.85 45.142ZM1661.87 43V34.072H1664.51V43H1661.87ZM1663.18 32.758C1662.74 32.758 1662.37 32.632 1662.08 32.38C1661.8 32.116 1661.65 31.78 1661.65 31.372C1661.65 30.964 1661.8 30.634 1662.08 30.382C1662.37 30.13 1662.74 30.004 1663.18 30.004C1663.64 30.004 1664 30.13 1664.28 30.382C1664.57 30.634 1664.71 30.964 1664.71 31.372C1664.71 31.78 1664.57 32.116 1664.28 32.38C1664 32.632 1663.64 32.758 1663.18 32.758ZM1666.84 43V34.072H1669L1669.18 35.206H1669.25C1669.64 34.846 1670.06 34.534 1670.51 34.27C1670.97 33.994 1671.5 33.856 1672.12 33.856C1673.09 33.856 1673.79 34.174 1674.22 34.81C1674.67 35.446 1674.89 36.328 1674.89 37.456V43H1672.24V37.798C1672.24 37.15 1672.15 36.706 1671.97 36.466C1671.8 36.226 1671.53 36.106 1671.14 36.106C1670.81 36.106 1670.52 36.184 1670.28 36.34C1670.04 36.484 1669.78 36.694 1669.49 36.97V43H1666.84Z" fill="url(#paint2_linear_401_1243)"/>
</g>
</g>
<defs>
<filter id="filter0_dd_401_1243" x="-40" y="-22" width="2000" height="158" filterUnits="userSpaceOnUse" color-interpolation-filters="sRGB">
<feFlood flood-opacity="0" result="BackgroundImageFix"/>
<feColorMatrix in="SourceAlpha" type="matrix" values="0 0 0 0 0 0 0 0 0 0 0 0 0 0 0 0 0 0 127 0" result="hardAlpha"/>
<feOffset dy="20"/>
<feGaussianBlur stdDeviation="20"/>
<feColorMatrix type="matrix" values="0 0 0 0 1 0 0 0 0 0.680498 0 0 0 0 0 0 0 0 0.29 0"/>
<feBlend mode="normal" in2="BackgroundImageFix" result="effect1_dropShadow_401_1243"/>
<feColorMatrix in="SourceAlpha" type="matrix" values="0 0 0 0 0 0 0 0 0 0 0 0 0 0 0 0 0 0 127 0" result="hardAlpha"/>
<feOffset dy="5"/>
<feGaussianBlur stdDeviation="5"/>
<feColorMatrix type="matrix" values="0 0 0 0 1 0 0 0 0 0.680498 0 0 0 0 0 0 0 0 0.26 0"/>
<feBlend mode="normal" in2="effect1_dropShadow_401_1243" result="effect2_dropShadow_401_1243"/>
<feBlend mode="normal" in="SourceGraphic" in2="effect2_dropShadow_401_1243" result="shape"/>
</filter>
<filter id="filter1_dd_401_1243" x="1542" y="-6" width="198" height="126" filterUnits="userSpaceOnUse" color-interpolation-filters="sRGB">
<feFlood flood-opacity="0" result="BackgroundImageFix"/>
<feColorMatrix in="SourceAlpha" type="matrix" values="0 0 0 0 0 0 0 0 0 0 0 0 0 0 0 0 0 0 127 0" result="hardAlpha"/>
<feOffset dy="20"/>
<feGaussianBlur stdDeviation="20"/>
<feColorMatrix type="matrix" values="0 0 0 0 1 0 0 0 0 0.680498 0 0 0 0 0 0 0 0 0.29 0"/>
<feBlend mode="normal" in2="BackgroundImageFix" result="effect1_dropShadow_401_1243"/>
<feColorMatrix in="SourceAlpha" type="matrix" values="0 0 0 0 0 0 0 0 0 0 0 0 0 0 0 0 0 0 127 0" result="hardAlpha"/>
<feOffset dy="5"/>
<feGaussianBlur stdDeviation="5"/>
<feColorMatrix type="matrix" values="0 0 0 0 1 0 0 0 0 0.680498 0 0 0 0 0 0 0 0 0.26 0"/>
<feBlend mode="normal" in2="effect1_dropShadow_401_1243" result="effect2_dropShadow_401_1243"/>
<feBlend mode="normal" in="SourceGraphic" in2="effect2_dropShadow_401_1243" result="shape"/>
</filter>
<linearGradient id="paint0_linear_401_1243" x1="235" y1="21.5" x2="235" y2="39" gradientUnits="userSpaceOnUse">
<stop stop-color="#FFD16D"/>
<stop offset="1" stop-color="#FF7A00"/>
</linearGradient>
<linearGradient id="paint1_linear_401_1243" x1="1598.97" y1="5.64997" x2="1629.9" y2="7.01517" gradientUnits="userSpaceOnUse">
<stop stop-color="#FFB800"/>
<stop offset="1" stop-color="#FF8A00"/>
</linearGradient>
<linearGradient id="paint2_linear_401_1243" x1="1612.67" y1="5.64997" x2="1696.66" y2="15.8443" gradientUnits="userSpaceOnUse">
<stop stop-color="#FFB800"/>
<stop offset="1" stop-color="#FF8A00"/>
</linearGradient>
</defs>
</svg>
